<?xml version="1.0" encoding="utf-8"?>
<!-- Generator: Adobe Illustrator 23.0.1, SVG Export Plug-In . SVG Version: 6.00 Build 0)  -->
<svg version="1.1" id="Capa_1" xmlns="http://www.w3.org/2000/svg" xmlns:xlink="http://www.w3.org/1999/xlink" x="0px" y="0px"
	 viewBox="0 0 800 300" style="enable-background:new 0 0 800 300;" xml:space="preserve">
<style type="text/css">
	.st0{fill:#3DA1AD;}
</style>
<g>
	<g>
		<path class="st0" d="M168.93,33.11c-18.67-1.48-37.35,4.83-51.58,16.96c-7.01,5.98-13.14,13.46-17,21.86
			c-1.73,3.76-2.59,7.52-2.69,11.63c-0.16,6.48-0.57,13.28,0.09,19.74c0.98,9.64,10.29,11.96,18.51,12.41
			c12.03,0.65,24.07-0.95,35.84-3.33c22.45-4.54,45.09-14.45,67.79-5.88c18.64,7.04,35.78,20.91,45.96,38.09
			c5.22,8.82,8.58,18.71,9.5,28.94c0.53,5.93-2.01,8.64,0.13-9.79c-0.18,1.52-0.25,3.02-0.46,4.53c-0.38,2.69-0.94,5.37-1.69,7.98
			c-1.42,4.96-3.52,9.7-6.28,14.06c-10.96,17.36-30.58,28.56-48.84,36.74c-20.31,9.1-42.09,14.6-64.06,17.84
			c-24.1,3.55-50.06,5.1-72.94-4.8c-21.32-9.23-36.85-27.5-49.44-46.44c0.17,0.26-0.07,3.01-0.07,2.93
			c-0.03,2.36-0.03,4.71-0.03,7.07c0,2.36,0,4.71,0.03,7.07c0.01,0.66-0.28,2.41,0.07,2.93c11.12,16.73,24.39,32.85,42.16,42.83
			c19.56,10.98,42.53,12.28,64.43,10.32c22.12-1.98,44.3-6.42,65.23-13.89c19.71-7.03,40.24-16.97,55.06-32.09
			c7.18-7.33,12.56-16.16,15.1-26.14c2.74-10.79,2.06-22.26,1.93-33.29c-0.24-20.17-7.98-38.29-22.15-52.67
			c-14.45-14.68-35.37-27.2-56.57-25.83c-11.43,0.74-22.58,4.38-33.67,7.01c-11.72,2.78-23.6,5.18-35.66,5.8
			c-10.48,0.54-23.78,1.4-29.28-9.22c-0.06-0.23-0.12-0.46-0.19-0.69c-1.35-5.26-1.41-0.77-0.19,13.45c0.42-1.5,0.67-2.96,1.2-4.45
			c0.92-2.6,2.22-5.06,3.61-7.43c2.59-4.42,5.71-8.53,9.25-12.25c14.59-15.33,35.79-23.67,56.9-22
			C168.55,53.08,169.6,33.16,168.93,33.11L168.93,33.11z"/>
	</g>
</g>
<g>
	<g>
		<path class="st0" d="M325.95,140.5c-10.49,6.48-17.26,16.75-22.2,27.82c-5.53,12.37-9.45,25.62-12.34,38.84
			c-3.03,13.83-4.15,27.08-4.07,41.2c0.03,4.47-0.51,10.01,2.04,13.97c3.71,5.76,10.79,4.15,15.93,1.56
			c11.37-5.74,20.93-15.48,27.6-26.21c7.04-11.33,11.43-24.03,17.63-35.8c5.45-10.35,12.83-20.26,23.06-26.29
			c4.73-2.78,10.13-4.7,15.65-4.93c6.81-0.29,9.19,2.99,10.66,9.06c-3.39-13.99,0.41-18.63-0.02-12.4c-0.18,2.59-0.38,5.17-0.7,7.74
			c-0.47,3.77-1.13,7.51-1.97,11.21c-1.56,6.88-3.74,13.61-6.49,20.1c-5.53,13.03-13.37,24.89-23.08,35.17c0,6.67,0,13.33,0,20
			c7.77-16.97,16.58-33.45,26.46-49.29c4.78-7.66,9.8-15.17,15.05-22.51c4.51-6.3,9.16-13.26,15.86-17.44
			c6.04-3.77,15.01-5.46,16.11,3.61c0.14,1.49,0.25,2.98,0.31,4.48c0.19-11.75,0.18-14.95-0.05-9.6c-0.18,2.57-0.39,5.12-0.73,7.68
			c-0.5,3.73-1.21,7.44-2.12,11.1c-4.05,16.28-12.06,31.29-23.25,43.77c0,6.67,0,13.33,0,20c5.98-15.3,11.97-30.63,19.24-45.39
			c6.55-13.31,13.96-27.06,24.52-37.66c3.59-3.6,11.06-11.32,16.74-10.66c3.22,0.37,3.19,2.67,4.26,5.03c0-2.53,0-5.07,0-7.6
			c0.31-7.9,0.27-10.12-0.12-6.65c-0.16,0.94-0.24,1.91-0.36,2.86c-0.32,2.55-0.65,5.1-0.97,7.65c-2.07,16.55-2.78,32.87-2.68,49.55
			c0.05,8.65,0.37,17.33,2.16,25.82c1.25,5.93,5.74,15.24,13.26,10.66c0.86-0.52,0.1-8.85,0.1-10c0-1.12-0.93-9.5-0.1-10
			c-6.08,3.7-11.02-2.37-12.58-7.78c-0.97-3.38-1.47-6.95-1.9-10.43c-0.3-2.41-0.43-4.82-0.64-7.24c-0.15-1.68-0.1-5.68-0.08,2
			c0.02,8,0.05,2.85,0.14,1.04c0.85-15.91,4.03-31.5,4.03-47.46c0-3.98,1.6-13.77-2.43-16.68c-4.74-3.43-13.24,4.7-16.49,7.65
			c-10.77,9.76-18.22,22.97-24.79,35.76c-8.22,16.01-14.78,32.79-21.32,49.53c-0.99,2.54-0.1,7.28-0.1,10c0,2.36,0,4.71,0.03,7.07
			c0.01,0.49,0.33,2.64,0.07,2.93c9.92-11.07,17.35-24.11,21.73-38.32c4.54-14.74,4.7-29.6,4.63-44.89
			c-0.02-3.54-0.03-7.09-0.24-10.63c-0.16-2.67,0.04-6.39-1.87-8.51c-4.65-5.17-14.21,0.64-18.11,4.01
			c-5.52,4.76-9.67,11.06-13.84,16.97c-4.69,6.64-9.18,13.41-13.49,20.31c-9.88,15.84-18.69,32.32-26.46,49.29
			c-1.07,2.33-0.1,7.44-0.1,10c0,2.36,0,4.71,0.03,7.07c0.01,0.47,0.32,2.66,0.07,2.93c17.57-18.59,28.9-42.64,31.74-68.09
			c0.59-5.32,0.73-10.65,0.76-16c0.04-6.31,1.06-14.1-0.71-20.32c-3.42-12.02-20.7-4.98-27.68-0.38
			c-21.77,14.34-26.39,41.76-39.77,62.4c-6.8,10.49-17.1,20.95-28.86,25.75c-5.27,2.15-11.57,2.1-14.35-3.67
			c-0.38-0.79-0.54-1.63-0.84-2.45c-2.82-7.84-1.34,21.09-0.22,10.44c0.45-4.32,1.14-8.63,1.89-12.9
			c2.72-15.39,6.9-30.72,12.93-45.16c5.05-12.1,12.03-23.59,23.41-30.63c0.87-0.54,0.1-8.84,0.1-10
			C326.05,149.37,325.12,141.02,325.95,140.5L325.95,140.5z"/>
	</g>
</g>
<g>
	<g>
		<path class="st0" d="M329.2,125.24c0.23-7.13,3.84-13.7,10.05-17.34c5.29-3.1,14.36-5.69,14.61,3.1
			c0.01-6.55,0.02-13.1,0.03-19.64c-0.59,5.43-3.84,12.11-8.27,15.49c-4.52,3.46-10.6,2.49-15.39,0.22c0.52,0.24-0.1,9.06-0.1,10
			c0,1.05-0.78,9.59,0.1,10c7.59,3.58,14.75,2.23,19.38-4.97c5.58-8.68,4.46-17.84,4.35-27.82c-0.03-2.61,0.45-7.33-2.27-8.89
			c-2.7-1.54-7.94,0.33-10.49,1.47c-7.65,3.46-11.79,10.9-12.06,19.08c-0.13,4.1-0.08,8.2-0.07,12.3c0.01,1.99-0.05,3.99,0.05,5.98
			C329.14,124.41,329.17,126.21,329.2,125.24L329.2,125.24z"/>
	</g>
</g>
<g>
	<g>
		<path class="st0" d="M537.4,131.32c-13.59,14.11-24.28,30.8-31.31,49.09c-3.34,8.7-6.03,17.81-7.49,27.02
			c-1.48,9.3-1.05,19.19-0.7,28.56c0.29,7.69,2.82,15.69,10.68,18.63c8.27,3.1,17.74-1.08,24.43-5.9
			c15.41-11.09,26.23-29.01,32.39-46.73c3.58-10.29,3.6-20.32,3.57-31.08c-0.03-9.31-0.14-18.55-5.49-26.62
			c-4.98-7.5-14.36-12.73-23.37-9.64c-8.43,2.89-15.79,12.29-16.55,21.13c-0.45,5.3-0.12,10.75-0.08,16.06
			c0.04,4.63-0.05,8.71,3.34,12.32c6.17,6.57,17.94,9.6,26.58,7.99c13.95-2.59,23.06-15.61,33.14-24.36
			c5.58-4.85,12.39-9.5,20.04-9.84c2.31-0.1,4.44,0.25,5.75,2.32c0.46,0.72,0.46,1.57,0.82,2.32c0.31-14.31,0.35-18.68,0.11-13.13
			c-0.04,0.88-0.08,1.76-0.13,2.64c-0.36,6.34-1.06,12.66-2.06,18.93c-3.69,23.29-11.63,45.73-23.2,66.26c0,6.67,0,13.33,0,20
			c5.18-18.96,10.38-37.96,17.51-56.31c3.43-8.83,7.31-17.51,11.83-25.84c3.63-6.69,8.15-17.26,16.32-19.35
			c8.58-2.2,15.69,5.35,17.75,12.94c0.26,0.97,0.28,2.42,0.65,3.29c-0.02-0.05,1.04-14.11-0.12-8.3c-0.43,2.14-0.65,4.32-1.1,6.46
			c-0.92,4.29-2.18,8.51-3.58,12.67c-5.67,16.89-12.77,32.68-12.9,50.81c-0.04,5.7-0.35,11.54,0.12,17.23
			c0.26,3.24,1.06,7.12,3.75,9.27c4.09,3.28,9.99-0.09,13.98-2c4.95-2.37,9.54-5.32,13.86-8.7c0.99-0.77,0.1-8.65,0.1-10
			c0-1.33-1.08-9.23-0.1-10c-3.63,2.84-7.45,5.41-11.54,7.54c-3.69,1.92-9.45,5.42-13.75,4.38c-3.52-0.85-4.62-3.9-5.74-6.94
			c-0.86-2.36-0.39-8.07-0.38,4.53c0.01,11.6-0.1,6.92,0.28,4.01c0.32-2.43,0.76-4.84,1.31-7.23c4.07-17.69,13.43-33.9,15.69-52.05
			c1.17-9.39,0.99-19.41,0.39-28.83c-0.51-8.06-4.03-16.58-12.49-18.98c-8.7-2.47-14.13,5.02-18.08,11.51
			c-5.23,8.61-9.7,17.68-13.59,26.96c-8.54,20.34-14.38,41.67-20.17,62.91c-0.79,2.91-0.1,7-0.1,10c0,2.36,0,4.71,0.03,7.07
			c0.01,0.64,0.35,2.43,0.07,2.93c17.21-30.55,25.52-64.49,25.62-99.46c0.01-5.2,2.56-19.2-5.51-19.92
			c-5.53-0.49-11.55,2.56-15.96,5.57c-9.86,6.74-16.91,16.79-26.79,23.5c-6.1,4.14-13.04,6.37-20.46,5.34
			c-8.35-1.16-19.71-5.64-21.19-14.99c0.02,0.46,0.03,0.91,0.05,1.37c-0.01-0.52-0.02-1.03-0.03-1.55
			c-0.02,6.21-0.03,12.42-0.05,18.63c0.87-8.86,8.04-18.21,16.55-21.13c8.7-2.98,17.89,1.81,22.93,8.96
			c2.65,3.76,4.32,8.13,5.16,12.64c1.08,5.78-2.07,2.38,0.4-7.71c-0.26,1.08-0.31,2.34-0.5,3.42c-0.5,2.84-1.25,5.64-2.14,8.38
			c-2.88,8.9-7.16,17.53-12.14,25.43c-8.35,13.25-24.58,32.81-42.51,29.57c-4.09-0.74-7.7-3.06-10.02-6.52
			c-0.94-1.41-1.64-2.98-2.16-4.59c-0.26-0.83-0.48-1.68-0.65-2.53c-0.13-0.65-0.24-1.31-0.31-1.98c-0.64-5.36-0.7-0.85-0.2,13.5
			c0.78-9.11,3.01-18.03,5.9-26.69c6.91-20.66,18.41-39.54,33.52-55.22c1.1-1.15,0.1-8.36,0.1-10c0-2.36,0-4.71-0.03-7.07
			C537.47,133.79,537.15,131.58,537.4,131.32L537.4,131.32z"/>
	</g>
</g>
<g>
	<g>
		<path class="st0" d="M719.38,129.86c-16.17-14.58-35.39,16.29-41.43,27.87c-9.38,17.99-15.62,38.11-15.9,58.47
			c-0.17,12.58-4.39,51.07,18.08,47.41c9.75-1.59,15.47-10.86,19.94-18.76c5.23-9.24,9.29-19.08,12.73-29.11
			c8.15-23.77,14.05-48.46,19.82-72.9c0.71-3.01,0.1-6.92,0.1-10c0-2.36,0-4.71-0.03-7.07c-0.01-0.72-0.34-2.31-0.07-2.93
			c-4.73,10.78-5.86,22.77-6.71,34.4c-0.94,12.8-0.85,25.7-0.67,38.53c0.23,16.88-0.11,50.28,24.16,50.4c0.11,0,0.19-20,0-20
			c-17.59-0.09-22.4-19.58-23.46-33.63c-0.19-2.52-0.26-5.05-0.44-7.58c-0.41-5.83-0.29,6.08,0.04-1.38
			c0.23-5.13,0.63-10.24,1.19-15.34c0.96-8.72,2.33-17.32,5.88-25.4c0-6.67,0-13.33,0-20c-4.7,19.9-9.73,39.76-15.53,59.37
			c-5.23,17.68-11.42,36.73-22.71,51.6c-4.94,6.5-13.21,12.52-21.74,9.13c-7.69-3.05-9.37-12.52-10.12-19.79
			c-0.33-3.19-0.31-9.81-0.31,1.93c0,2.02,0,4.03,0,6.05c0.05-1.38,0.15-2.76,0.29-4.13c0.22-2.4,0.55-4.78,0.94-7.16
			c0.85-5.07,2.08-10.08,3.56-15.01c2.65-8.79,6.05-17.43,10.19-25.63c5.96-11.78,25.59-44.3,42.18-29.34
			c-0.88-0.79,0.1-8.64,0.1-10c0-2.36,0-4.71-0.03-7.07C719.44,132.29,719.7,130.15,719.38,129.86L719.38,129.86z"/>
	</g>
</g>
<g>
	<g>
		<path class="st0" d="M168.35,51.64c4.64,1.78,6.97,5.83,7.38,10.65c-0.02-6.21-0.03-12.42-0.05-18.63
			c-0.01,0.42-0.01,0.85-0.02,1.27c0.02-0.46,0.03-0.91,0.05-1.37c-0.89,7.18-6.63,11.74-13.29,13.54c-0.49,0.13-0.1,9.15-0.1,10
			c0,0.81,0.46,9.9,0.1,10c4.4-1.19,8.55-3.51,11.12-7.4c2.34-3.54,2.24-7.29,2.28-11.35c0.07-8.5,2.78-22.79-7.46-26.71
			c0.41,0.16-0.1,9.13-0.1,10C168.25,42.6,167.59,51.35,168.35,51.64L168.35,51.64z"/>
	</g>
</g>
<g>
	<g>
		<path class="st0" d="M35.4,193.68c11.98,1.6,23.95,1.22,35.81-1.12c1.41-0.28-1.12-19.78,0-20c-11.86,2.34-23.82,2.72-35.81,1.12
			C36.13,173.78,34.37,193.55,35.4,193.68L35.4,193.68z"/>
	</g>
</g>
<g>
	<g>
		<path class="st0" d="M508.64,32.46c-2.14,3.74-4.59,7.26-7.35,10.58c-0.24,0.28-0.07,2.97-0.07,2.93
			c-0.03,2.36-0.03,4.71-0.03,7.07c0,2.36,0,4.71,0.03,7.07c0.01,0.51,0.34,2.61,0.07,2.93c2.75-3.31,5.2-6.84,7.35-10.58
			c0.26-0.45,0.07-2.73,0.07-2.93c0.03-2.36,0.03-4.71,0.03-7.07c0-2.36,0-4.71-0.03-7.07C508.7,34.75,508.36,32.95,508.64,32.46
			L508.64,32.46z"/>
	</g>
</g>
<g>
	<g>
		<path class="st0" d="M566.82,86.31c-1.83,1.5-3.66,3-5.49,4.49c-0.64,0.52-1.8,1.16-2.19,1.94c-0.23,0.47-0.15,1.26-0.16,1.7
			c-0.04,1.99-0.04,3.98-0.05,5.98c-0.01,3.93-0.08,7.87,0.06,11.8c0.02,0.54-0.13,1.53,0.61,1.14c0.26-0.13,0.16-1.74,0.16-1.53
			c0.04-1.99,0.04-3.98,0.05-5.98c0.01-3.81,0.01-7.62-0.05-11.43c0.01-0.46-0.01-0.91-0.05-1.37c-0.05-0.02-0.1-0.03-0.15-0.05
			c0.01,0-0.08,3.38-0.07,2.93c-0.03,2.36-0.03,4.71-0.03,7.07c0,2.36,0,4.71,0.03,7.07c0,0.33-0.11,2.87,0.07,2.93
			c0.05,0.02,0.1,0.03,0.15,0.05c-0.02-0.46-0.03-0.91-0.05-1.37c0,0.05,0,0.09,0,0.14c0.02-6.21,0.03-12.42,0.05-18.63
			c-0.29,0.45-0.57,0.39-0.68-0.12c0,6.67,0,13.33,0,20c0.45-1.31,2.45-2.39,3.49-3.25c1.43-1.17,2.87-2.34,4.3-3.52
			c0.2-0.16,0.07-3.15,0.07-2.93c0.03-2.36,0.03-4.71,0.03-7.07c0-2.36,0-4.71-0.03-7.07C566.88,88.83,566.61,86.48,566.82,86.31
			L566.82,86.31z"/>
	</g>
</g>
<g>
	<g>
		<path class="st0" d="M600.51,28.49c-2.12,1.48-4.24,2.97-6.35,4.45c-0.18,0.13-0.07,3.2-0.07,2.93c-0.03,2.36-0.03,4.71-0.03,7.07
			c0,2.36,0,4.71,0.03,7.07c0,0.38,0.26,2.8,0.07,2.93c2.12-1.48,4.24-2.97,6.35-4.45c0.18-0.13,0.07-3.2,0.07-2.93
			c0.03-2.36,0.03-4.71,0.03-7.07c0-2.36,0-4.71-0.03-7.07C600.57,31.04,600.32,28.62,600.51,28.49L600.51,28.49z"/>
	</g>
</g>
<g>
	<g>
		<path class="st0" d="M59.89,58.5c-1.93,2.31-3.85,4.63-5.78,6.94c-0.24,0.28-0.07,2.97-0.07,2.93c-0.03,2.36-0.03,4.71-0.03,7.07
			c0,2.36,0,4.71,0.03,7.07c0.01,0.51,0.34,2.61,0.07,2.93c1.93-2.31,3.85-4.63,5.78-6.94c0.24-0.28,0.07-2.97,0.07-2.93
			c0.03-2.36,0.03-4.71,0.03-7.07c0-2.36,0-4.71-0.03-7.07C59.96,60.92,59.63,58.82,59.89,58.5L59.89,58.5z"/>
	</g>
</g>
<g>
	<g>
		<path class="st0" d="M782.94,251.62c-4.68,2.94-9.35,5.88-14.03,8.81c-0.17,0.11-0.07,3.23-0.07,2.93
			c-0.03,2.36-0.03,4.71-0.03,7.07c0,2.36,0,4.71,0.03,7.07c0,0.36,0.24,2.82,0.07,2.93c4.68-2.94,9.35-5.88,14.03-8.81
			c0.17-0.11,0.07-3.23,0.07-2.93c0.03-2.36,0.03-4.71,0.03-7.07c0-2.36,0-4.71-0.03-7.07
			C783.01,254.19,782.77,251.73,782.94,251.62L782.94,251.62z"/>
	</g>
</g>
</svg>
